<?xml version="1.0" encoding="UTF-8"?>
<svg width="79px" height="29px" viewBox="0 0 79 29" version="1.1" xmlns="http://www.w3.org/2000/svg" xmlns:xlink="http://www.w3.org/1999/xlink">
    <title>flit</title>
    <g id="UI" stroke="none" stroke-width="1" fill="none" fill-rule="evenodd">
        <g id="Splash" transform="translate(-148.000000, -390.000000)" fill="#212121" fill-rule="nonzero">
            <path d="M158.88,419 L158.88,405.464 L166.476,405.464 L166.476,401.396 L158.88,401.396 L158.88,398.48 C158.88,397.928 159.054,397.49 159.402,397.166 C159.75,396.842 160.212,396.68 160.788,396.68 L160.788,396.68 L166.476,396.68 L166.476,392.72 L160.68,392.72 C158.784,392.72 157.26,393.236 156.108,394.268 C154.956,395.3 154.38,396.68 154.38,398.408 L154.38,398.408 L154.38,401.396 L148.944,401.396 L148.944,405.464 L154.38,405.464 L154.38,419 L158.88,419 Z M187.377162,419 L187.377162,414.932 L181.581162,414.932 C180.861162,414.932 180.291162,414.71 179.871162,414.266 C179.451162,413.822 179.241162,413.228 179.241162,412.484 L179.241162,412.484 L179.241162,392.72 L168.225162,392.72 L168.225162,396.788 L174.741162,396.788 L174.741162,412.592 C174.741162,414.512 175.335162,416.06 176.523162,417.236 C177.711162,418.412 179.289162,419 181.257162,419 L181.257162,419 L187.377162,419 Z M198.954323,395.888 C199.866323,395.888 200.586323,395.654 201.114323,395.186 C201.642323,394.718 201.906323,394.088 201.906323,393.296 C201.906323,392.504 201.642323,391.874 201.114323,391.406 C200.586323,390.938 199.866323,390.704 198.954323,390.704 C198.042323,390.704 197.322323,390.938 196.794323,391.406 C196.266323,391.874 196.002323,392.504 196.002323,393.296 C196.002323,394.088 196.266323,394.718 196.794323,395.186 C197.322323,395.654 198.042323,395.888 198.954323,395.888 Z M207.594323,419 L207.594323,414.932 L201.510323,414.932 L201.510323,399.2 L190.962323,399.2 L190.962323,403.268 L197.010323,403.268 L197.010323,414.932 L190.242323,414.932 L190.242323,419 L207.594323,419 Z M226.443485,419 L226.443485,414.932 L221.043485,414.932 C220.467485,414.932 220.017485,414.746 219.693485,414.374 C219.369485,414.002 219.207485,413.528 219.207485,412.952 L219.207485,412.952 L219.207485,403.268 L226.803485,403.268 L226.803485,399.2 L219.207485,399.2 L219.207485,393.62 L214.671485,393.62 L214.671485,399.2 L209.307485,399.2 L209.307485,403.268 L214.671485,403.268 L214.671485,413.06 C214.671485,414.884 215.217485,416.33 216.309485,417.398 C217.401485,418.466 218.871485,419 220.719485,419 L220.719485,419 L226.443485,419 Z" id="flit"></path>
        </g>
    </g>
</svg>